<svg width="1412" height="183" viewBox="0 0 1412 183" fill="none" xmlns="http://www.w3.org/2000/svg">
<mask id="mask0_1_2" style="mask-type:luminance" maskUnits="userSpaceOnUse" x="-6" y="0" width="200" height="200">
<path d="M-6 0H194V200H-6V0Z" fill="white"/>
</mask>
<g mask="url(#mask0_1_2)">
<mask id="mask1_1_2" style="mask-type:luminance" maskUnits="userSpaceOnUse" x="-6" y="0" width="200" height="200">
<path d="M68.0415 181.88H88.5415L99.0207 199.99H120.417L130.896 181.88H151.396L161.875 199.99H183.271L193.969 181.495L183.495 163.385L193.969 145.271L183.495 127.161L193.969 109.052L183.495 90.9375L193.969 72.8281L183.495 54.7188L193.969 36.6042L183.271 18.1094H162.323L151.844 0H130.448L119.969 18.1094H99.4686L88.9946 0H67.5936L57.1196 18.1094H36.6144L26.1353 0H4.73942L-5.9585 18.4948L4.51546 36.6042L-5.9585 54.7188L4.51546 72.8281L-5.9585 90.9375L4.51546 109.052L-5.9585 127.161L4.51546 145.271L-5.9585 163.385L4.73942 181.88H25.6925L36.1665 199.99H57.5623L68.0415 181.88ZM25.6925 145.656L35.9425 163.385L25.6925 181.109H5.18734L-5.06787 163.385L5.18734 145.656H25.6925ZM98.8019 54.7188L88.5467 72.4427H68.0415L57.7863 54.7188L68.0415 36.9896H88.5467L98.8019 54.7188ZM89.2186 36.6042L99.4686 18.8802H119.974L130.224 36.6042L119.974 54.3333H99.4686L89.2186 36.6042ZM119.969 55.1042L130.224 72.8281L119.969 90.5521H99.4686L89.2186 72.8281L99.4686 55.1042H119.969ZM98.8019 90.9375L88.5467 108.667H68.0415L57.7863 90.9375L68.0415 73.2135H88.5467L98.8019 90.9375ZM119.969 91.3229L130.224 109.052L119.969 126.776H99.4686L89.2186 109.052L99.4686 91.3229H119.969ZM98.8019 127.161L88.5467 144.885H68.0415L57.7863 127.161L68.0415 109.438H88.5467L98.8019 127.161ZM119.969 127.547L130.224 145.271L119.969 163H99.4686L89.2186 145.271L99.4686 127.547H119.969ZM98.7967 163.38L88.5415 181.109H68.0415L57.7863 163.385L68.0415 145.656H88.5467L98.7967 163.38ZM26.3592 145.271L36.6144 127.547H57.1196L67.3696 145.271L57.1196 163H36.6144L26.3592 145.271ZM25.6925 109.438L35.9425 127.161L25.6925 144.885H5.18734L-5.06787 127.161L5.18734 109.438H25.6925ZM26.3592 109.052L36.6144 91.3229H57.1196L67.3696 109.052L57.1196 126.776H36.6144L26.3592 109.052ZM25.6925 73.2135L35.9425 90.9375L25.6925 108.667H5.18734L-5.06787 90.9375L5.18734 73.2135H25.6925ZM26.3592 72.8281L36.6144 55.1042H57.1196L67.3696 72.8281L57.1196 90.5521H36.6144L26.3592 72.8281ZM25.6925 36.9896L35.9425 54.7188L25.6925 72.4427H5.18734L-5.06787 54.7188L5.18734 36.9896H25.6925ZM26.3592 36.6042L36.6144 18.8802H57.1196L67.3696 36.6042L57.1196 54.3333H36.6144L26.3592 36.6042ZM35.9425 18.4948L25.6925 36.2188H5.18734L-5.06787 18.4948L5.18734 0.770833H25.6925L35.9425 18.4948ZM98.8019 18.4948L88.5467 36.2188H68.0415L57.7863 18.4948L68.0415 0.770833H88.5467L98.8019 18.4948ZM161.651 18.4948L151.396 36.2188H130.896L120.64 18.4896L130.89 0.770833H151.401L161.651 18.4948ZM162.323 54.3333L152.068 36.6042L162.323 18.8802H182.828L193.078 36.6042L182.828 54.3333H162.323ZM161.651 54.7188L151.396 72.4427H130.896L120.64 54.7188L130.896 36.9896H151.396L161.651 54.7188ZM162.323 90.5521L152.068 72.8281L162.323 55.1042H182.828L193.078 72.8281L182.828 90.5521H162.323ZM161.651 90.9375L151.396 108.667H130.896L120.64 90.9375L130.896 73.2135H151.396L161.651 90.9375ZM162.323 126.776L152.068 109.052L162.323 91.3229H182.828L193.078 109.052L182.828 126.776H162.323ZM161.651 127.161L151.396 144.885H130.896L120.64 127.161L130.896 109.438H151.396L161.651 127.161ZM162.323 163L152.068 145.271L162.323 127.547H182.828L193.078 145.271L182.828 163H162.323ZM161.651 163.385L151.396 181.109H130.896L120.64 163.385L130.896 145.656H151.401L161.651 163.385ZM152.068 181.495L162.323 163.771H182.828L193.078 181.495L182.828 199.219H162.318L152.068 181.495ZM89.2134 181.5L99.4686 163.771H119.974L130.224 181.495L119.974 199.219H99.4686L89.2134 181.5ZM57.1196 199.219H36.6144L26.3592 181.495L36.6144 163.771H57.1196L67.3696 181.495L57.1196 199.219Z" fill="white"/>
</mask>
<g mask="url(#mask1_1_2)">
<path d="M-5.9585 0H193.969V199.99H-5.9585V0Z" fill="#0E1A45"/>
</g>
</g>
<mask id="mask2_1_2" style="mask-type:luminance" maskUnits="userSpaceOnUse" x="197" y="50" width="200" height="200">
<path d="M197 50H397V250H197V50Z" fill="white"/>
</mask>
<g mask="url(#mask2_1_2)">
<mask id="mask3_1_2" style="mask-type:luminance" maskUnits="userSpaceOnUse" x="197" y="50" width="200" height="200">
<path d="M271.042 231.88H291.542L302.021 249.99H323.417L333.896 231.88H354.396L364.875 249.99H386.271L396.969 231.495L386.495 213.385L396.969 195.271L386.495 177.161L396.969 159.052L386.495 140.938L396.969 122.828L386.495 104.719L396.969 86.6042L386.271 68.1094H365.323L354.844 50H333.448L322.969 68.1094H302.469L291.995 50H270.594L260.12 68.1094H239.614L229.135 50H207.739L197.042 68.4948L207.515 86.6042L197.042 104.719L207.515 122.828L197.042 140.938L207.515 159.052L197.042 177.161L207.515 195.271L197.042 213.385L207.739 231.88H228.693L239.167 249.99H260.562L271.042 231.88ZM228.693 195.656L238.943 213.385L228.693 231.109H208.187L197.932 213.385L208.187 195.656H228.693ZM301.802 104.719L291.547 122.443H271.042L260.786 104.719L271.042 86.9896H291.547L301.802 104.719ZM292.219 86.6042L302.469 68.8802H322.974L333.224 86.6042L322.974 104.333H302.469L292.219 86.6042ZM322.969 105.104L333.224 122.828L322.969 140.552H302.469L292.219 122.828L302.469 105.104H322.969ZM301.802 140.938L291.547 158.667H271.042L260.786 140.938L271.042 123.214H291.547L301.802 140.938ZM322.969 141.323L333.224 159.052L322.969 176.776H302.469L292.219 159.052L302.469 141.323H322.969ZM301.802 177.161L291.547 194.885H271.042L260.786 177.161L271.042 159.438H291.547L301.802 177.161ZM322.969 177.547L333.224 195.271L322.969 213H302.469L292.219 195.271L302.469 177.547H322.969ZM301.797 213.38L291.542 231.109H271.042L260.786 213.385L271.042 195.656H291.547L301.797 213.38ZM229.359 195.271L239.614 177.547H260.12L270.37 195.271L260.12 213H239.614L229.359 195.271ZM228.693 159.438L238.943 177.161L228.693 194.885H208.187L197.932 177.161L208.187 159.438H228.693ZM229.359 159.052L239.614 141.323H260.12L270.37 159.052L260.12 176.776H239.614L229.359 159.052ZM228.693 123.214L238.943 140.938L228.693 158.667H208.187L197.932 140.938L208.187 123.214H228.693ZM229.359 122.828L239.614 105.104H260.12L270.37 122.828L260.12 140.552H239.614L229.359 122.828ZM228.693 86.9896L238.943 104.719L228.693 122.443H208.187L197.932 104.719L208.187 86.9896H228.693ZM229.359 86.6042L239.614 68.8802H260.12L270.37 86.6042L260.12 104.333H239.614L229.359 86.6042ZM238.943 68.4948L228.693 86.2188H208.187L197.932 68.4948L208.187 50.7708H228.693L238.943 68.4948ZM301.802 68.4948L291.547 86.2188H271.042L260.786 68.4948L271.042 50.7708H291.547L301.802 68.4948ZM364.651 68.4948L354.396 86.2188H333.896L323.64 68.4896L333.89 50.7708H354.401L364.651 68.4948ZM365.323 104.333L355.068 86.6042L365.323 68.8802H385.828L396.078 86.6042L385.828 104.333H365.323ZM364.651 104.719L354.396 122.443H333.896L323.64 104.719L333.896 86.9896H354.396L364.651 104.719ZM365.323 140.552L355.068 122.828L365.323 105.104H385.828L396.078 122.828L385.828 140.552H365.323ZM364.651 140.938L354.396 158.667H333.896L323.64 140.938L333.896 123.214H354.396L364.651 140.938ZM365.323 176.776L355.068 159.052L365.323 141.323H385.828L396.078 159.052L385.828 176.776H365.323ZM364.651 177.161L354.396 194.885H333.896L323.64 177.161L333.896 159.438H354.396L364.651 177.161ZM365.323 213L355.068 195.271L365.323 177.547H385.828L396.078 195.271L385.828 213H365.323ZM364.651 213.385L354.396 231.109H333.896L323.64 213.385L333.896 195.656H354.401L364.651 213.385ZM355.068 231.495L365.323 213.771H385.828L396.078 231.495L385.828 249.219H365.318L355.068 231.495ZM292.213 231.5L302.469 213.771H322.974L333.224 231.495L322.974 249.219H302.469L292.213 231.5ZM260.12 249.219H239.614L229.359 231.495L239.614 213.771H260.12L270.37 231.495L260.12 249.219Z" fill="white"/>
</mask>
<g mask="url(#mask3_1_2)">
<path d="M197.042 50H396.969V249.99H197.042V50Z" fill="#0E1A45"/>
</g>
</g>
<mask id="mask4_1_2" style="mask-type:luminance" maskUnits="userSpaceOnUse" x="400" y="0" width="200" height="200">
<path d="M400 0H600V200H400V0Z" fill="white"/>
</mask>
<g mask="url(#mask4_1_2)">
<mask id="mask5_1_2" style="mask-type:luminance" maskUnits="userSpaceOnUse" x="400" y="0" width="200" height="200">
<path d="M474.042 181.88H494.542L505.021 199.99H526.417L536.896 181.88H557.396L567.875 199.99H589.271L599.969 181.495L589.495 163.385L599.969 145.271L589.495 127.161L599.969 109.052L589.495 90.9375L599.969 72.8281L589.495 54.7188L599.969 36.6042L589.271 18.1094H568.323L557.844 0H536.448L525.969 18.1094H505.469L494.995 0H473.594L463.12 18.1094H442.614L432.135 0H410.739L400.042 18.4948L410.515 36.6042L400.042 54.7188L410.515 72.8281L400.042 90.9375L410.515 109.052L400.042 127.161L410.515 145.271L400.042 163.385L410.739 181.88H431.693L442.167 199.99H463.562L474.042 181.88ZM431.693 145.656L441.943 163.385L431.693 181.109H411.187L400.932 163.385L411.187 145.656H431.693ZM504.802 54.7188L494.547 72.4427H474.042L463.786 54.7188L474.042 36.9896H494.547L504.802 54.7188ZM495.219 36.6042L505.469 18.8802H525.974L536.224 36.6042L525.974 54.3333H505.469L495.219 36.6042ZM525.969 55.1042L536.224 72.8281L525.969 90.5521H505.469L495.219 72.8281L505.469 55.1042H525.969ZM504.802 90.9375L494.547 108.667H474.042L463.786 90.9375L474.042 73.2135H494.547L504.802 90.9375ZM525.969 91.3229L536.224 109.052L525.969 126.776H505.469L495.219 109.052L505.469 91.3229H525.969ZM504.802 127.161L494.547 144.885H474.042L463.786 127.161L474.042 109.438H494.547L504.802 127.161ZM525.969 127.547L536.224 145.271L525.969 163H505.469L495.219 145.271L505.469 127.547H525.969ZM504.797 163.38L494.542 181.109H474.042L463.786 163.385L474.042 145.656H494.547L504.797 163.38ZM432.359 145.271L442.614 127.547H463.12L473.37 145.271L463.12 163H442.614L432.359 145.271ZM431.693 109.438L441.943 127.161L431.693 144.885H411.187L400.932 127.161L411.187 109.438H431.693ZM432.359 109.052L442.614 91.3229H463.12L473.37 109.052L463.12 126.776H442.614L432.359 109.052ZM431.693 73.2135L441.943 90.9375L431.693 108.667H411.187L400.932 90.9375L411.187 73.2135H431.693ZM432.359 72.8281L442.614 55.1042H463.12L473.37 72.8281L463.12 90.5521H442.614L432.359 72.8281ZM431.693 36.9896L441.943 54.7188L431.693 72.4427H411.187L400.932 54.7188L411.187 36.9896H431.693ZM432.359 36.6042L442.614 18.8802H463.12L473.37 36.6042L463.12 54.3333H442.614L432.359 36.6042ZM441.943 18.4948L431.693 36.2188H411.187L400.932 18.4948L411.187 0.770833H431.693L441.943 18.4948ZM504.802 18.4948L494.547 36.2188H474.042L463.786 18.4948L474.042 0.770833H494.547L504.802 18.4948ZM567.651 18.4948L557.396 36.2188H536.896L526.64 18.4896L536.89 0.770833H557.401L567.651 18.4948ZM568.323 54.3333L558.068 36.6042L568.323 18.8802H588.828L599.078 36.6042L588.828 54.3333H568.323ZM567.651 54.7188L557.396 72.4427H536.896L526.64 54.7188L536.896 36.9896H557.396L567.651 54.7188ZM568.323 90.5521L558.068 72.8281L568.323 55.1042H588.828L599.078 72.8281L588.828 90.5521H568.323ZM567.651 90.9375L557.396 108.667H536.896L526.64 90.9375L536.896 73.2135H557.396L567.651 90.9375ZM568.323 126.776L558.068 109.052L568.323 91.3229H588.828L599.078 109.052L588.828 126.776H568.323ZM567.651 127.161L557.396 144.885H536.896L526.64 127.161L536.896 109.438H557.396L567.651 127.161ZM568.323 163L558.068 145.271L568.323 127.547H588.828L599.078 145.271L588.828 163H568.323ZM567.651 163.385L557.396 181.109H536.896L526.64 163.385L536.896 145.656H557.401L567.651 163.385ZM558.068 181.495L568.323 163.771H588.828L599.078 181.495L588.828 199.219H568.318L558.068 181.495ZM495.213 181.5L505.469 163.771H525.974L536.224 181.495L525.974 199.219H505.469L495.213 181.5ZM463.12 199.219H442.614L432.359 181.495L442.614 163.771H463.12L473.37 181.495L463.12 199.219Z" fill="white"/>
</mask>
<g mask="url(#mask5_1_2)">
<path d="M400.042 0H599.969V199.99H400.042V0Z" fill="#0E1A45"/>
</g>
</g>
<mask id="mask6_1_2" style="mask-type:luminance" maskUnits="userSpaceOnUse" x="603" y="50" width="200" height="200">
<path d="M603 50H803V250H603V50Z" fill="white"/>
</mask>
<g mask="url(#mask6_1_2)">
<mask id="mask7_1_2" style="mask-type:luminance" maskUnits="userSpaceOnUse" x="603" y="50" width="200" height="200">
<path d="M677.042 231.88H697.542L708.021 249.99H729.417L739.896 231.88H760.396L770.875 249.99H792.271L802.969 231.495L792.495 213.385L802.969 195.271L792.495 177.161L802.969 159.052L792.495 140.938L802.969 122.828L792.495 104.719L802.969 86.6042L792.271 68.1094H771.323L760.844 50H739.448L728.969 68.1094H708.469L697.995 50H676.594L666.12 68.1094H645.615L635.136 50H613.74L603.042 68.4948L613.516 86.6042L603.042 104.719L613.516 122.828L603.042 140.938L613.516 159.052L603.042 177.161L613.516 195.271L603.042 213.385L613.74 231.88H634.693L645.167 249.99H666.563L677.042 231.88ZM634.693 195.656L644.943 213.385L634.693 231.109H614.188L603.933 213.385L614.188 195.656H634.693ZM707.802 104.719L697.547 122.443H677.042L666.787 104.719L677.042 86.9896H697.547L707.802 104.719ZM698.219 86.6042L708.469 68.8802H728.974L739.224 86.6042L728.974 104.333H708.469L698.219 86.6042ZM728.969 105.104L739.224 122.828L728.969 140.552H708.469L698.219 122.828L708.469 105.104H728.969ZM707.802 140.938L697.547 158.667H677.042L666.787 140.938L677.042 123.214H697.547L707.802 140.938ZM728.969 141.323L739.224 159.052L728.969 176.776H708.469L698.219 159.052L708.469 141.323H728.969ZM707.802 177.161L697.547 194.885H677.042L666.787 177.161L677.042 159.438H697.547L707.802 177.161ZM728.969 177.547L739.224 195.271L728.969 213H708.469L698.219 195.271L708.469 177.547H728.969ZM707.797 213.38L697.542 231.109H677.042L666.787 213.385L677.042 195.656H697.547L707.797 213.38ZM635.36 195.271L645.615 177.547H666.12L676.37 195.271L666.12 213H645.615L635.36 195.271ZM634.693 159.438L644.943 177.161L634.693 194.885H614.188L603.933 177.161L614.188 159.438H634.693ZM635.36 159.052L645.615 141.323H666.12L676.37 159.052L666.12 176.776H645.615L635.36 159.052ZM634.693 123.214L644.943 140.938L634.693 158.667H614.188L603.933 140.938L614.188 123.214H634.693ZM635.36 122.828L645.615 105.104H666.12L676.37 122.828L666.12 140.552H645.615L635.36 122.828ZM634.693 86.9896L644.943 104.719L634.693 122.443H614.188L603.933 104.719L614.188 86.9896H634.693ZM635.36 86.6042L645.615 68.8802H666.12L676.37 86.6042L666.12 104.333H645.615L635.36 86.6042ZM644.943 68.4948L634.693 86.2188H614.188L603.933 68.4948L614.188 50.7708H634.693L644.943 68.4948ZM707.802 68.4948L697.547 86.2188H677.042L666.787 68.4948L677.042 50.7708H697.547L707.802 68.4948ZM770.651 68.4948L760.396 86.2188H739.896L729.641 68.4896L739.891 50.7708H760.401L770.651 68.4948ZM771.323 104.333L761.068 86.6042L771.323 68.8802H791.828L802.078 86.6042L791.828 104.333H771.323ZM770.651 104.719L760.396 122.443H739.896L729.641 104.719L739.896 86.9896H760.396L770.651 104.719ZM771.323 140.552L761.068 122.828L771.323 105.104H791.828L802.078 122.828L791.828 140.552H771.323ZM770.651 140.938L760.396 158.667H739.896L729.641 140.938L739.896 123.214H760.396L770.651 140.938ZM771.323 176.776L761.068 159.052L771.323 141.323H791.828L802.078 159.052L791.828 176.776H771.323ZM770.651 177.161L760.396 194.885H739.896L729.641 177.161L739.896 159.438H760.396L770.651 177.161ZM771.323 213L761.068 195.271L771.323 177.547H791.828L802.078 195.271L791.828 213H771.323ZM770.651 213.385L760.396 231.109H739.896L729.641 213.385L739.896 195.656H760.401L770.651 213.385ZM761.068 231.495L771.323 213.771H791.828L802.078 231.495L791.828 249.219H771.318L761.068 231.495ZM698.214 231.5L708.469 213.771H728.974L739.224 231.495L728.974 249.219H708.469L698.214 231.5ZM666.12 249.219H645.615L635.36 231.495L645.615 213.771H666.12L676.37 231.495L666.12 249.219Z" fill="white"/>
</mask>
<g mask="url(#mask7_1_2)">
<path d="M603.042 50H802.969V249.99H603.042V50Z" fill="#0E1A45"/>
</g>
</g>
<mask id="mask8_1_2" style="mask-type:luminance" maskUnits="userSpaceOnUse" x="806" y="0" width="200" height="200">
<path d="M806 0H1006V200H806V0Z" fill="white"/>
</mask>
<g mask="url(#mask8_1_2)">
<mask id="mask9_1_2" style="mask-type:luminance" maskUnits="userSpaceOnUse" x="806" y="0" width="200" height="200">
<path d="M880.042 181.88H900.542L911.021 199.99H932.417L942.896 181.88H963.396L973.875 199.99H995.271L1005.97 181.495L995.495 163.385L1005.97 145.271L995.495 127.161L1005.97 109.052L995.495 90.9375L1005.97 72.8281L995.495 54.7188L1005.97 36.6042L995.271 18.1094H974.323L963.844 0H942.448L931.969 18.1094H911.469L900.995 0H879.594L869.12 18.1094H848.615L838.136 0H816.74L806.042 18.4948L816.516 36.6042L806.042 54.7188L816.516 72.8281L806.042 90.9375L816.516 109.052L806.042 127.161L816.516 145.271L806.042 163.385L816.74 181.88H837.693L848.167 199.99H869.563L880.042 181.88ZM837.693 145.656L847.943 163.385L837.693 181.109H817.188L806.933 163.385L817.188 145.656H837.693ZM910.802 54.7188L900.547 72.4427H880.042L869.787 54.7188L880.042 36.9896H900.547L910.802 54.7188ZM901.219 36.6042L911.469 18.8802H931.974L942.224 36.6042L931.974 54.3333H911.469L901.219 36.6042ZM931.969 55.1042L942.224 72.8281L931.969 90.5521H911.469L901.219 72.8281L911.469 55.1042H931.969ZM910.802 90.9375L900.547 108.667H880.042L869.787 90.9375L880.042 73.2135H900.547L910.802 90.9375ZM931.969 91.3229L942.224 109.052L931.969 126.776H911.469L901.219 109.052L911.469 91.3229H931.969ZM910.802 127.161L900.547 144.885H880.042L869.787 127.161L880.042 109.438H900.547L910.802 127.161ZM931.969 127.547L942.224 145.271L931.969 163H911.469L901.219 145.271L911.469 127.547H931.969ZM910.797 163.38L900.542 181.109H880.042L869.787 163.385L880.042 145.656H900.547L910.797 163.38ZM838.36 145.271L848.615 127.547H869.12L879.37 145.271L869.12 163H848.615L838.36 145.271ZM837.693 109.438L847.943 127.161L837.693 144.885H817.188L806.933 127.161L817.188 109.438H837.693ZM838.36 109.052L848.615 91.3229H869.12L879.37 109.052L869.12 126.776H848.615L838.36 109.052ZM837.693 73.2135L847.943 90.9375L837.693 108.667H817.188L806.933 90.9375L817.188 73.2135H837.693ZM838.36 72.8281L848.615 55.1042H869.12L879.37 72.8281L869.12 90.5521H848.615L838.36 72.8281ZM837.693 36.9896L847.943 54.7188L837.693 72.4427H817.188L806.933 54.7188L817.188 36.9896H837.693ZM838.36 36.6042L848.615 18.8802H869.12L879.37 36.6042L869.12 54.3333H848.615L838.36 36.6042ZM847.943 18.4948L837.693 36.2188H817.188L806.933 18.4948L817.188 0.770833H837.693L847.943 18.4948ZM910.802 18.4948L900.547 36.2188H880.042L869.787 18.4948L880.042 0.770833H900.547L910.802 18.4948ZM973.651 18.4948L963.396 36.2188H942.896L932.641 18.4896L942.891 0.770833H963.401L973.651 18.4948ZM974.323 54.3333L964.068 36.6042L974.323 18.8802H994.828L1005.08 36.6042L994.828 54.3333H974.323ZM973.651 54.7188L963.396 72.4427H942.896L932.641 54.7188L942.896 36.9896H963.396L973.651 54.7188ZM974.323 90.5521L964.068 72.8281L974.323 55.1042H994.828L1005.08 72.8281L994.828 90.5521H974.323ZM973.651 90.9375L963.396 108.667H942.896L932.641 90.9375L942.896 73.2135H963.396L973.651 90.9375ZM974.323 126.776L964.068 109.052L974.323 91.3229H994.828L1005.08 109.052L994.828 126.776H974.323ZM973.651 127.161L963.396 144.885H942.896L932.641 127.161L942.896 109.438H963.396L973.651 127.161ZM974.323 163L964.068 145.271L974.323 127.547H994.828L1005.08 145.271L994.828 163H974.323ZM973.651 163.385L963.396 181.109H942.896L932.641 163.385L942.896 145.656H963.401L973.651 163.385ZM964.068 181.495L974.323 163.771H994.828L1005.08 181.495L994.828 199.219H974.318L964.068 181.495ZM901.214 181.5L911.469 163.771H931.974L942.224 181.495L931.974 199.219H911.469L901.214 181.5ZM869.12 199.219H848.615L838.36 181.495L848.615 163.771H869.12L879.37 181.495L869.12 199.219Z" fill="white"/>
</mask>
<g mask="url(#mask9_1_2)">
<path d="M806.042 0H1005.97V199.99H806.042V0Z" fill="#0E1A45"/>
</g>
</g>
<mask id="mask10_1_2" style="mask-type:luminance" maskUnits="userSpaceOnUse" x="1009" y="50" width="200" height="200">
<path d="M1009 50H1209V250H1009V50Z" fill="white"/>
</mask>
<g mask="url(#mask10_1_2)">
<mask id="mask11_1_2" style="mask-type:luminance" maskUnits="userSpaceOnUse" x="1009" y="50" width="200" height="200">
<path d="M1083.04 231.88H1103.54L1114.02 249.99H1135.42L1145.9 231.88H1166.4L1176.88 249.99H1198.27L1208.97 231.495L1198.5 213.385L1208.97 195.271L1198.5 177.161L1208.97 159.052L1198.5 140.938L1208.97 122.828L1198.5 104.719L1208.97 86.6042L1198.27 68.1094H1177.32L1166.84 50H1145.45L1134.97 68.1094H1114.47L1104 50H1082.59L1072.12 68.1094H1051.61L1041.14 50H1019.74L1009.04 68.4948L1019.52 86.6042L1009.04 104.719L1019.52 122.828L1009.04 140.938L1019.52 159.052L1009.04 177.161L1019.52 195.271L1009.04 213.385L1019.74 231.88H1040.69L1051.17 249.99H1072.56L1083.04 231.88ZM1040.69 195.656L1050.94 213.385L1040.69 231.109H1020.19L1009.93 213.385L1020.19 195.656H1040.69ZM1113.8 104.719L1103.55 122.443H1083.04L1072.79 104.719L1083.04 86.9896H1103.55L1113.8 104.719ZM1104.22 86.6042L1114.47 68.8802H1134.97L1145.22 86.6042L1134.97 104.333H1114.47L1104.22 86.6042ZM1134.97 105.104L1145.22 122.828L1134.97 140.552H1114.47L1104.22 122.828L1114.47 105.104H1134.97ZM1113.8 140.938L1103.55 158.667H1083.04L1072.79 140.938L1083.04 123.214H1103.55L1113.8 140.938ZM1134.97 141.323L1145.22 159.052L1134.97 176.776H1114.47L1104.22 159.052L1114.47 141.323H1134.97ZM1113.8 177.161L1103.55 194.885H1083.04L1072.79 177.161L1083.04 159.438H1103.55L1113.8 177.161ZM1134.97 177.547L1145.22 195.271L1134.97 213H1114.47L1104.22 195.271L1114.47 177.547H1134.97ZM1113.8 213.38L1103.54 231.109H1083.04L1072.79 213.385L1083.04 195.656H1103.55L1113.8 213.38ZM1041.36 195.271L1051.61 177.547H1072.12L1082.37 195.271L1072.12 213H1051.61L1041.36 195.271ZM1040.69 159.438L1050.94 177.161L1040.69 194.885H1020.19L1009.93 177.161L1020.19 159.438H1040.69ZM1041.36 159.052L1051.61 141.323H1072.12L1082.37 159.052L1072.12 176.776H1051.61L1041.36 159.052ZM1040.69 123.214L1050.94 140.938L1040.69 158.667H1020.19L1009.93 140.938L1020.19 123.214H1040.69ZM1041.36 122.828L1051.61 105.104H1072.12L1082.37 122.828L1072.12 140.552H1051.61L1041.36 122.828ZM1040.69 86.9896L1050.94 104.719L1040.69 122.443H1020.19L1009.93 104.719L1020.19 86.9896H1040.69ZM1041.36 86.6042L1051.61 68.8802H1072.12L1082.37 86.6042L1072.12 104.333H1051.61L1041.36 86.6042ZM1050.94 68.4948L1040.69 86.2188H1020.19L1009.93 68.4948L1020.19 50.7708H1040.69L1050.94 68.4948ZM1113.8 68.4948L1103.55 86.2188H1083.04L1072.79 68.4948L1083.04 50.7708H1103.55L1113.8 68.4948ZM1176.65 68.4948L1166.4 86.2188H1145.9L1135.64 68.4896L1145.89 50.7708H1166.4L1176.65 68.4948ZM1177.32 104.333L1167.07 86.6042L1177.32 68.8802H1197.83L1208.08 86.6042L1197.83 104.333H1177.32ZM1176.65 104.719L1166.4 122.443H1145.9L1135.64 104.719L1145.9 86.9896H1166.4L1176.65 104.719ZM1177.32 140.552L1167.07 122.828L1177.32 105.104H1197.83L1208.08 122.828L1197.83 140.552H1177.32ZM1176.65 140.938L1166.4 158.667H1145.9L1135.64 140.938L1145.9 123.214H1166.4L1176.65 140.938ZM1177.32 176.776L1167.07 159.052L1177.32 141.323H1197.83L1208.08 159.052L1197.83 176.776H1177.32ZM1176.65 177.161L1166.4 194.885H1145.9L1135.64 177.161L1145.9 159.438H1166.4L1176.65 177.161ZM1177.32 213L1167.07 195.271L1177.32 177.547H1197.83L1208.08 195.271L1197.83 213H1177.32ZM1176.65 213.385L1166.4 231.109H1145.9L1135.64 213.385L1145.9 195.656H1166.4L1176.65 213.385ZM1167.07 231.495L1177.32 213.771H1197.83L1208.08 231.495L1197.83 249.219H1177.32L1167.07 231.495ZM1104.21 231.5L1114.47 213.771H1134.97L1145.22 231.495L1134.97 249.219H1114.47L1104.21 231.5ZM1072.12 249.219H1051.61L1041.36 231.495L1051.61 213.771H1072.12L1082.37 231.495L1072.12 249.219Z" fill="white"/>
</mask>
<g mask="url(#mask11_1_2)">
<path d="M1009.04 50H1208.97V249.99H1009.04V50Z" fill="#0E1A45"/>
</g>
</g>
<mask id="mask12_1_2" style="mask-type:luminance" maskUnits="userSpaceOnUse" x="1212" y="0" width="200" height="200">
<path d="M1212 0H1412V200H1212V0Z" fill="white"/>
</mask>
<g mask="url(#mask12_1_2)">
<mask id="mask13_1_2" style="mask-type:luminance" maskUnits="userSpaceOnUse" x="1212" y="0" width="200" height="200">
<path d="M1286.04 181.88H1306.54L1317.02 199.99H1338.42L1348.9 181.88H1369.4L1379.88 199.99H1401.27L1411.97 181.495L1401.5 163.385L1411.97 145.271L1401.5 127.161L1411.97 109.052L1401.5 90.9375L1411.97 72.8281L1401.5 54.7188L1411.97 36.6042L1401.27 18.1094H1380.32L1369.84 0H1348.45L1337.97 18.1094H1317.47L1307 0H1285.59L1275.12 18.1094H1254.61L1244.14 0H1222.74L1212.04 18.4948L1222.52 36.6042L1212.04 54.7188L1222.52 72.8281L1212.04 90.9375L1222.52 109.052L1212.04 127.161L1222.52 145.271L1212.04 163.385L1222.74 181.88H1243.69L1254.17 199.99H1275.56L1286.04 181.88ZM1243.69 145.656L1253.94 163.385L1243.69 181.109H1223.19L1212.93 163.385L1223.19 145.656H1243.69ZM1316.8 54.7188L1306.55 72.4427H1286.04L1275.79 54.7188L1286.04 36.9896H1306.55L1316.8 54.7188ZM1307.22 36.6042L1317.47 18.8802H1337.97L1348.22 36.6042L1337.97 54.3333H1317.47L1307.22 36.6042ZM1337.97 55.1042L1348.22 72.8281L1337.97 90.5521H1317.47L1307.22 72.8281L1317.47 55.1042H1337.97ZM1316.8 90.9375L1306.55 108.667H1286.04L1275.79 90.9375L1286.04 73.2135H1306.55L1316.8 90.9375ZM1337.97 91.3229L1348.22 109.052L1337.97 126.776H1317.47L1307.22 109.052L1317.47 91.3229H1337.97ZM1316.8 127.161L1306.55 144.885H1286.04L1275.79 127.161L1286.04 109.438H1306.55L1316.8 127.161ZM1337.97 127.547L1348.22 145.271L1337.97 163H1317.47L1307.22 145.271L1317.47 127.547H1337.97ZM1316.8 163.38L1306.54 181.109H1286.04L1275.79 163.385L1286.04 145.656H1306.55L1316.8 163.38ZM1244.36 145.271L1254.61 127.547H1275.12L1285.37 145.271L1275.12 163H1254.61L1244.36 145.271ZM1243.69 109.438L1253.94 127.161L1243.69 144.885H1223.19L1212.93 127.161L1223.19 109.438H1243.69ZM1244.36 109.052L1254.61 91.3229H1275.12L1285.37 109.052L1275.12 126.776H1254.61L1244.36 109.052ZM1243.69 73.2135L1253.94 90.9375L1243.69 108.667H1223.19L1212.93 90.9375L1223.19 73.2135H1243.69ZM1244.36 72.8281L1254.61 55.1042H1275.12L1285.37 72.8281L1275.12 90.5521H1254.61L1244.36 72.8281ZM1243.69 36.9896L1253.94 54.7188L1243.69 72.4427H1223.19L1212.93 54.7188L1223.19 36.9896H1243.69ZM1244.36 36.6042L1254.61 18.8802H1275.12L1285.37 36.6042L1275.12 54.3333H1254.61L1244.36 36.6042ZM1253.94 18.4948L1243.69 36.2188H1223.19L1212.93 18.4948L1223.19 0.770833H1243.69L1253.94 18.4948ZM1316.8 18.4948L1306.55 36.2188H1286.04L1275.79 18.4948L1286.04 0.770833H1306.55L1316.8 18.4948ZM1379.65 18.4948L1369.4 36.2188H1348.9L1338.64 18.4896L1348.89 0.770833H1369.4L1379.65 18.4948ZM1380.32 54.3333L1370.07 36.6042L1380.32 18.8802H1400.83L1411.08 36.6042L1400.83 54.3333H1380.32ZM1379.65 54.7188L1369.4 72.4427H1348.9L1338.64 54.7188L1348.9 36.9896H1369.4L1379.65 54.7188ZM1380.32 90.5521L1370.07 72.8281L1380.32 55.1042H1400.83L1411.08 72.8281L1400.83 90.5521H1380.32ZM1379.65 90.9375L1369.4 108.667H1348.9L1338.64 90.9375L1348.9 73.2135H1369.4L1379.65 90.9375ZM1380.32 126.776L1370.07 109.052L1380.32 91.3229H1400.83L1411.08 109.052L1400.83 126.776H1380.32ZM1379.65 127.161L1369.4 144.885H1348.9L1338.64 127.161L1348.9 109.438H1369.4L1379.65 127.161ZM1380.32 163L1370.07 145.271L1380.32 127.547H1400.83L1411.08 145.271L1400.83 163H1380.32ZM1379.65 163.385L1369.4 181.109H1348.9L1338.64 163.385L1348.9 145.656H1369.4L1379.65 163.385ZM1370.07 181.495L1380.32 163.771H1400.83L1411.08 181.495L1400.83 199.219H1380.32L1370.07 181.495ZM1307.21 181.5L1317.47 163.771H1337.97L1348.22 181.495L1337.97 199.219H1317.47L1307.21 181.5ZM1275.12 199.219H1254.61L1244.36 181.495L1254.61 163.771H1275.12L1285.37 181.495L1275.12 199.219Z" fill="white"/>
</mask>
<g mask="url(#mask13_1_2)">
<path d="M1212.04 0H1411.97V199.99H1212.04V0Z" fill="#0E1A45"/>
</g>
</g>
<path opacity="0.4" d="M411 18.5L415.75 10.2728L425.25 10.2728L430 18.5L425.25 26.7272L415.75 26.7272L411 18.5Z" fill="#0478FF"/>
<path opacity="0.4" d="M817 18.5L821.75 10.2728L831.25 10.2728L836 18.5L831.25 26.7272L821.75 26.7272L817 18.5Z" fill="#0478FF"/>
<path opacity="0.4" d="M1223 18.5L1227.75 10.2728L1237.25 10.2728L1242 18.5L1237.25 26.7272L1227.75 26.7272L1223 18.5Z" fill="#0478FF"/>
<path opacity="0.4" d="M38 37.5L42.75 29.2728L52.25 29.2728L57 37.5L52.25 45.7272L42.75 45.7272L38 37.5Z" fill="#0478FF"/>
<path opacity="0.4" d="M444 37.5L448.75 29.2728L458.25 29.2728L463 37.5L458.25 45.7272L448.75 45.7272L444 37.5Z" fill="#0478FF"/>
<path opacity="0.4" d="M850 37.5L854.75 29.2728L864.25 29.2728L869 37.5L864.25 45.7272L854.75 45.7272L850 37.5Z" fill="#0478FF"/>
<path opacity="0.4" d="M1256 37.5L1260.75 29.2728L1270.25 29.2728L1275 37.5L1270.25 45.7272L1260.75 45.7272L1256 37.5Z" fill="#0478FF"/>
<path opacity="0.4" d="M69 54.5L73.75 46.2728H83.25L88 54.5L83.25 62.7272L73.75 62.7272L69 54.5Z" fill="#0478FF"/>
<path opacity="0.4" d="M475 54.5L479.75 46.2728H489.25L494 54.5L489.25 62.7272L479.75 62.7272L475 54.5Z" fill="#0478FF"/>
<path opacity="0.4" d="M881 54.5L885.75 46.2728H895.25L900 54.5L895.25 62.7272L885.75 62.7272L881 54.5Z" fill="#0478FF"/>
<path opacity="0.4" d="M1287 54.5L1291.75 46.2728H1301.25L1306 54.5L1301.25 62.7272L1291.75 62.7272L1287 54.5Z" fill="#0478FF"/>
<path opacity="0.4" d="M100 73.5L104.75 65.2728H114.25L119 73.5L114.25 81.7272H104.75L100 73.5Z" fill="#0478FF"/>
<path opacity="0.4" d="M506 73.5L510.75 65.2728H520.25L525 73.5L520.25 81.7272H510.75L506 73.5Z" fill="#0478FF"/>
<path opacity="0.4" d="M912 73.5L916.75 65.2728H926.25L931 73.5L926.25 81.7272H916.75L912 73.5Z" fill="#0478FF"/>
<path opacity="0.4" d="M1318 73.5L1322.75 65.2728H1332.25L1337 73.5L1332.25 81.7272H1322.75L1318 73.5Z" fill="#0478FF"/>
</svg>
