<svg width="1440" height="1911" viewBox="0 0 1440 1911" fill="none" xmlns="http://www.w3.org/2000/svg">
<g clip-path="url(#clip0_8_138)">
<rect width="1440" height="1911" fill="white"/>
<path d="M1919.46 2045.66C1980.71 1931.42 1995.16 1797.84 1959.76 1673.08C1924.36 1548.32 1841.88 1442.14 1729.71 1376.92C1617.53 1311.71 1484.44 1292.56 1358.5 1323.51C1232.55 1354.46 1123.6 1433.1 1054.61 1542.84C985.617 1652.57 961.987 1784.84 988.698 1911.73C1015.41 2038.63 1090.38 2150.23 1197.79 2223.02C1305.2 2295.81 1436.66 2324.08 1564.45 2301.89C1692.24 2279.69 1806.36 2208.75 1882.76 2104.04L1788.25 2035.12C1729.71 2115.37 1642.25 2169.72 1544.33 2186.73C1446.41 2203.75 1345.67 2182.08 1263.36 2126.3C1181.05 2070.52 1123.6 1985 1103.13 1887.76C1082.67 1790.52 1100.77 1689.17 1153.64 1605.08C1206.51 1520.98 1290 1460.73 1386.51 1437.01C1483.02 1413.29 1585.01 1427.96 1670.97 1477.94C1756.92 1527.91 1820.13 1609.28 1847.26 1704.88C1874.38 1800.49 1863.31 1902.85 1816.38 1990.39L1919.46 2045.66Z" fill="url(#paint0_linear_8_138)"/>
<circle cx="1322" cy="1665" r="100" fill="url(#paint1_linear_8_138)"/>
<circle cx="981" cy="1368" r="100" fill="url(#paint2_linear_8_138)"/>
</g>
<defs>
<linearGradient id="paint0_linear_8_138" x1="1762.5" y1="1465" x2="1008.5" y2="2200" gradientUnits="userSpaceOnUse">
<stop stop-color="#ED0E57"/>
<stop offset="0.0001" stop-color="#44F4A4"/>
<stop offset="1" stop-color="#0478FF" stop-opacity="0"/>
</linearGradient>
<linearGradient id="paint1_linear_8_138" x1="1248" y1="1446" x2="1322" y2="1765" gradientUnits="userSpaceOnUse">
<stop stop-color="#F0F0F0"/>
<stop offset="1" stop-color="#0478FF"/>
</linearGradient>
<linearGradient id="paint2_linear_8_138" x1="858" y1="1218" x2="1104.5" y2="1500" gradientUnits="userSpaceOnUse">
<stop stop-color="#F0F0F0"/>
<stop offset="1" stop-color="#0478FF"/>
</linearGradient>
<clipPath id="clip0_8_138">
<rect width="1440" height="1911" fill="white"/>
</clipPath>
</defs>
</svg>
